<svg width="88" height="88" viewBox="0 0 88 88" fill="none" xmlns="http://www.w3.org/2000/svg">
<path d="M43.7171 50.8202C44.185 50.5677 44.4768 50.0876 44.4768 49.5655V41.4346H60.5314C61.3421 41.4346 62 40.7919 62 40.0001C62 39.2082 61.3421 38.5655 60.5314 38.5655H44.4768V30.4346C44.4768 29.9105 44.185 29.4305 43.7171 29.1799C43.2491 28.9255 42.6773 28.9427 42.225 29.2201L26.6853 38.7855C26.2585 39.0494 26 39.5066 26 40.0001C26 40.4935 26.2585 40.9507 26.6853 41.2146L42.225 50.78C42.4639 50.9254 42.736 51 43.0082 51C43.251 51 43.4958 50.9388 43.7171 50.8202Z" fill="#473729"/>
<g filter="url(#filter0_d_0_1)">
<circle cx="44" cy="40" r="37.5" stroke="#473729" stroke-width="5" shape-rendering="crispEdges"/>
</g>
<defs>
<filter id="filter0_d_0_1" x="0" y="0" width="88" height="88" filterUnits="userSpaceOnUse" color-interpolation-filters="sRGB">
<feFlood flood-opacity="0" result="BackgroundImageFix"/>
<feColorMatrix in="SourceAlpha" type="matrix" values="0 0 0 0 0 0 0 0 0 0 0 0 0 0 0 0 0 0 127 0" result="hardAlpha"/>
<feOffset dy="4"/>
<feGaussianBlur stdDeviation="2"/>
<feComposite in2="hardAlpha" operator="out"/>
<feColorMatrix type="matrix" values="0 0 0 0 0 0 0 0 0 0 0 0 0 0 0 0 0 0 0.25 0"/>
<feBlend mode="normal" in2="BackgroundImageFix" result="effect1_dropShadow_0_1"/>
<feBlend mode="normal" in="SourceGraphic" in2="effect1_dropShadow_0_1" result="shape"/>
</filter>
</defs>
</svg>
